<svg aria-hidden="true" style="position: absolute; width: 0; height: 0; overflow: hidden;" version="1.1" xmlns="http://www.w3.org/2000/svg">
    <defs>
        <symbol id="lock" viewBox="0 0 32 32">
            <path d="M15.471 3.495c-3.71 0.021-6.711 3.023-6.732 6.73v2.894h-2.905v15.385h19.274v-15.385h-2.892v-2.905c0-3.692-3.052-6.732-6.757-6.732zM15.471 5.428c0 0 0 0 0 0 2.656 0 4.811 2.146 4.825 4.799v2.894h-9.649v-2.905c0-2.646 2.166-4.8 4.825-4.8zM7.754 15.015h15.434v11.545h-15.434v-11.532z"></path>
        </symbol>
        <symbol id="contact" viewBox="0 0 32 32">
            <path d="M15.471 4.468c-0.003 0-0.007 0-0.011 0-3.718 0-6.732 3.014-6.732 6.732 0 2.302 1.155 4.334 2.918 5.548l0.023 0.015c-3.459 1.503-5.834 4.889-5.834 8.83 0 0.011 0 0.022 0 0.033v-0.002h1.92c-0-0.018-0-0.040-0-0.062 0-4.221 3.422-7.643 7.643-7.643 0.026 0 0.052 0 0.078 0l-0.004-0c4.308 0 7.717 3.397 7.717 7.692h1.932c0-0.008 0-0.017 0-0.026 0-3.946-2.381-7.336-5.784-8.812l-0.062-0.024c1.775-1.23 2.923-3.256 2.923-5.551 0-3.716-3.010-6.729-6.725-6.732h-0zM15.471 6.388c2.654 0 4.806 2.152 4.806 4.806s-2.152 4.806-4.806 4.806v0c-2.654 0-4.806-2.152-4.806-4.806s2.152-4.806 4.806-4.806v0z"></path>
        </symbol>
    </defs>
</svg>